<?xml version="1.0" encoding="UTF-8"?>
<svg version="1.1" xmlns="http://www.w3.org/2000/svg" width="144" height="144">
<path d="M0 0 C-4.49096082 5.38104651 -9.24209175 10.37957831 -14.20849609 15.32202148 C-15.00916504 16.12283646 -15.80983398 16.92365143 -16.63476562 17.74873352 C-19.26195761 20.37523304 -21.89266583 22.99818016 -24.5234375 25.62109375 C-26.3535409 27.44933061 -28.18342255 29.27778947 -30.01309204 31.10646057 C-34.32471128 35.4146616 -38.63854825 39.72063013 -42.95348704 44.02550608 C-47.86967046 48.93047541 -52.78298256 53.83831671 -57.69606662 58.74639022 C-67.79420687 68.83410455 -77.89591192 78.91824333 -88 89 C-91.42482707 87.38223883 -93.65690522 85.57656756 -96.328125 82.8671875 C-97.12734375 82.06152344 -97.9265625 81.25585938 -98.75 80.42578125 C-99.575 79.58402344 -100.4 78.74226563 -101.25 77.875 C-102.09046875 77.02550781 -102.9309375 76.17601563 -103.796875 75.30078125 C-105.86915683 73.20495077 -107.93662393 71.10459287 -110 69 C-108.31438936 64.88918327 -105.417858 61.84016011 -102.48852539 58.57910156 C-101.92332184 57.94453537 -101.35811829 57.30996918 -100.77578735 56.65617371 C-95.49433109 50.76205587 -90.08691023 44.98667211 -84.63881779 39.24663162 C-80.99474817 35.4024224 -77.40169255 31.53044169 -73.9050293 27.55126953 C-51.25223782 1.85544036 -34.16172006 -5.15601036 0 0 Z " fill="#54C5F8" transform="translate(127,4)"/>
<path d="M0 0 C-1.36113013 3.04581486 -2.89330096 5.13839026 -5.25634766 7.48339844 C-5.91688141 8.14378113 -6.57741516 8.80416382 -7.25796509 9.48455811 C-8.32523331 10.53634247 -8.32523331 10.53634247 -9.4140625 11.609375 C-10.14370209 12.33618469 -10.87334167 13.06299438 -11.62509155 13.81182861 C-13.9537388 16.12929198 -16.28924826 18.4396995 -18.625 20.75 C-20.20618653 22.32115444 -21.78692125 23.89276371 -23.3671875 25.46484375 C-27.2395669 29.31518653 -31.11760171 33.15976117 -35 37 C-30.89194863 41.90199852 -26.62233204 46.50277314 -22.0703125 50.9921875 C-21.43511688 51.6235965 -20.79992126 52.25500549 -20.14547729 52.9055481 C-18.14108664 54.89783714 -16.13345702 56.88681093 -14.125 58.875 C-11.45810917 61.51539854 -8.79448347 64.15902837 -6.1328125 66.8046875 C-5.20953659 67.7155159 -5.20953659 67.7155159 -4.26760864 68.64474487 C-2.82615477 70.07771488 -1.41014374 71.53620803 0 73 C0 73.33 0 73.66 0 74 C-35.15083337 79.94828971 -35.15083337 79.94828971 -48.56982422 70.46679688 C-60.11945322 61.18113937 -69.85363665 49.60288185 -79 38 C-63.07609165 4.05473019 -34.48668372 -5.46035041 0 0 Z " fill="#54C5F8" transform="translate(127,66)"/>
<path d="M0 0 C4.97573418 4.17282346 9.66304787 8.51527427 14.24609375 13.11328125 C14.90207047 13.76830124 15.55804718 14.42332123 16.23390198 15.09819031 C17.60564902 16.46926195 18.9761546 17.84157673 20.34545898 19.21508789 C22.45247257 21.32751101 24.56484026 23.43447608 26.67773438 25.54101562 C28.01334205 26.87728318 29.34863999 28.21386041 30.68359375 29.55078125 C31.31784775 30.18301102 31.95210175 30.81524078 32.60557556 31.46662903 C37 35.88501756 37 35.88501756 37 37 C31.15149513 37.37532365 25.31019795 37.64490255 19.45239258 37.82397461 C17.4680767 37.89869377 15.48456622 38.00053206 13.50317383 38.1315918 C-3.83581861 39.24839985 -3.83581861 39.24839985 -10.74951172 33.59423828 C-14.52941595 30.02678869 -17.88450625 26.15670801 -21 22 C-17.81597912 18.23327844 -14.63838094 14.50997409 -11.1328125 11.03515625 C-10.47539063 10.38095703 -9.81796875 9.72675781 -9.140625 9.05273438 C-8.47546875 8.39595703 -7.8103125 7.73917969 -7.125 7.0625 C-6.43664062 6.37865234 -5.74828125 5.69480469 -5.0390625 4.99023438 C-3.36166359 3.32448407 -1.68151054 1.66159639 0 0 Z " fill="#01569A" transform="translate(90,103)"/>
<path d="M0 0 C3.46629835 1.48653506 5.69022036 3.45722351 8.328125 6.1328125 C9.12734375 6.93847656 9.9265625 7.74414062 10.75 8.57421875 C11.575 9.41597656 12.4 10.25773437 13.25 11.125 C14.09046875 11.97449219 14.9309375 12.82398437 15.796875 13.69921875 C17.86915683 15.79504923 19.93662393 17.89540713 22 20 C20.51346494 23.46629835 18.54277649 25.69022036 15.8671875 28.328125 C15.06152344 29.12734375 14.25585938 29.9265625 13.42578125 30.75 C12.58402344 31.575 11.74226563 32.4 10.875 33.25 C10.02550781 34.09046875 9.17601563 34.9309375 8.30078125 35.796875 C6.20495077 37.86915683 4.10459287 39.93662393 2 42 C-1.46629835 40.51346494 -3.69022036 38.54277649 -6.328125 35.8671875 C-7.12734375 35.06152344 -7.9265625 34.25585938 -8.75 33.42578125 C-9.9875 32.16314453 -9.9875 32.16314453 -11.25 30.875 C-12.09046875 30.02550781 -12.9309375 29.17601563 -13.796875 28.30078125 C-15.86915683 26.20495077 -17.93662393 24.10459287 -20 22 C-18.51346494 18.53370165 -16.54277649 16.30977964 -13.8671875 13.671875 C-12.65869141 12.47304687 -12.65869141 12.47304687 -11.42578125 11.25 C-10.58402344 10.425 -9.74226563 9.6 -8.875 8.75 C-8.02550781 7.90953125 -7.17601562 7.0690625 -6.30078125 6.203125 C-4.20495077 4.13084317 -2.10459287 2.06337607 0 0 Z " fill="#29B5F5" transform="translate(68,82)"/>
<path d="M0 0 C-0.2100756 3.23245355 -0.61734767 6.05208088 -2 9 C-4.83898716 10.7871129 -7.67482667 11.61537174 -11 12 C-11.66 11.67 -12.32 11.34 -13 11 C-11.21427748 9.16052663 -9.42197551 7.32842259 -7.625 5.5 C-7.11710937 4.97535156 -6.60921875 4.45070313 -6.0859375 3.91015625 C-2.2265625 0 -2.2265625 0 0 0 Z " fill="#023F6E" transform="translate(83,112)"/>
<path d="M0 0 C0.66 0.33 1.32 0.66 2 1 C0.61811547 4.21043882 -0.92421903 6.04936365 -3.625 8.25 C-4.25664063 8.77078125 -4.88828125 9.2915625 -5.5390625 9.828125 C-6.02117187 10.21484375 -6.50328125 10.6015625 -7 11 C-7.33 10.01 -7.66 9.02 -8 8 C-5.36 5.36 -2.72 2.72 0 0 Z " fill="#04518A" transform="translate(90,103)"/>
<path d="M0 0 C0.66 0 1.32 0 2 0 C1.67 1.65 1.34 3.3 1 5 C-1.31 5.66 -3.62 6.32 -6 7 C-5.04882866 5.8274869 -4.08882991 4.66212985 -3.125 3.5 C-2.59132813 2.8503125 -2.05765625 2.200625 -1.5078125 1.53125 C-0.76144531 0.77328125 -0.76144531 0.77328125 0 0 Z " fill="#013052" transform="translate(76,117)"/>
</svg>
