<svg width="24" height="24" viewBox="0 0 24 24" fill="none" xmlns="http://www.w3.org/2000/svg">
<path d="M20.8986 10.8996H5.75758L9.06138 7.59588C9.26924 7.38801 9.38375 7.11154 9.38375 6.81753C9.38375 6.52351 9.26924 6.24708 9.06133 6.03917C8.85342 5.8313 8.57703 5.7168 8.28298 5.7168C7.98897 5.7168 7.71253 5.8313 7.50466 6.03917L2.32186 11.222C1.89271 11.6512 1.89271 12.3495 2.32186 12.7787L7.50471 17.9615C7.71262 18.1694 7.98901 18.2839 8.28306 18.2839C8.57712 18.2839 8.85351 18.1694 9.06142 17.9615C9.26928 17.7536 9.38379 17.4772 9.38379 17.1832C9.38379 16.8892 9.26933 16.6128 9.06142 16.4048L5.75762 13.1011H20.8986C21.5056 13.1011 21.9994 12.6073 21.9994 12.0004C21.9994 11.3935 21.5055 10.8996 20.8986 10.8996Z" fill="#151515"/>
</svg>
