<svg width="24" height="24" viewBox="0 0 24 24" fill="none" xmlns="http://www.w3.org/2000/svg">
<path d="M3.10144 10.8996H18.2424L14.9386 7.59588C14.7308 7.38801 14.6163 7.11154 14.6163 6.81753C14.6163 6.52351 14.7308 6.24708 14.9387 6.03917C15.1466 5.8313 15.423 5.7168 15.717 5.7168C16.011 5.7168 16.2875 5.8313 16.4953 6.03917L21.6781 11.222C22.1073 11.6512 22.1073 12.3495 21.6781 12.7787L16.4953 17.9615C16.2874 18.1694 16.011 18.2839 15.7169 18.2839C15.4229 18.2839 15.1465 18.1694 14.9386 17.9615C14.7307 17.7536 14.6162 17.4772 14.6162 17.1832C14.6162 16.8892 14.7307 16.6128 14.9386 16.4048L18.2424 13.1011H3.10135C2.49439 13.1011 2.00063 12.6073 2.00063 12.0004C2.00063 11.3935 2.49448 10.8996 3.10144 10.8996Z" fill="#151515"/>
</svg>
