<svg width="18" height="18" viewBox="0 0 18 18" fill="none" xmlns="http://www.w3.org/2000/svg">
<path d="M15.84 5.235L12.765 2.16C12.405 1.8 11.685 1.5 11.175 1.5H6.825C6.315 1.5 5.595 1.8 5.235 2.16L2.16 5.235C1.8 5.595 1.5 6.315 1.5 6.825V11.175C1.5 11.685 1.8 12.405 2.16 12.765L5.235 15.84C5.595 16.2 6.315 16.5 6.825 16.5H11.175C11.685 16.5 12.405 16.2 12.765 15.84L15.84 12.765C16.2 12.405 16.5 11.685 16.5 11.175V6.825C16.5 6.315 16.2 5.595 15.84 5.235ZM12.0225 11.2275C12.24 11.445 12.24 11.805 12.0225 12.0225C11.91 12.135 11.7675 12.1875 11.625 12.1875C11.4825 12.1875 11.34 12.135 11.2275 12.0225L9 9.795L6.7725 12.0225C6.66 12.135 6.5175 12.1875 6.375 12.1875C6.2325 12.1875 6.09 12.135 5.9775 12.0225C5.76 11.805 5.76 11.445 5.9775 11.2275L8.205 9L5.9775 6.7725C5.76 6.555 5.76 6.195 5.9775 5.9775C6.195 5.76 6.555 5.76 6.7725 5.9775L9 8.205L11.2275 5.9775C11.445 5.76 11.805 5.76 12.0225 5.9775C12.24 6.195 12.24 6.555 12.0225 6.7725L9.795 9L12.0225 11.2275Z" fill="#E61010"/>
</svg>
