<svg width="21" height="21" viewBox="0 0 21 21" fill="none" xmlns="http://www.w3.org/2000/svg">
<g clip-path="url(#clip0_231_77)">
<path d="M17.1668 17.1668C17.1668 17.3878 17.079 17.5997 16.9228 17.756C16.7665 17.9123 16.5545 18.0001 16.3335 18.0001H4.66683C4.44582 18.0001 4.23385 17.9123 4.07757 17.756C3.92129 17.5997 3.8335 17.3878 3.8335 17.1668V9.66676H1.3335L9.93933 1.84343C10.0928 1.70383 10.2927 1.62646 10.5002 1.62646C10.7076 1.62646 10.9076 1.70383 11.061 1.84343L19.6668 9.66676H17.1668V17.1668ZM6.75016 11.3334C6.75016 12.328 7.14525 13.2818 7.84851 13.9851C8.55177 14.6883 9.5056 15.0834 10.5002 15.0834C11.4947 15.0834 12.4486 14.6883 13.1518 13.9851C13.8551 13.2818 14.2502 12.328 14.2502 11.3334H12.5835C12.5835 11.886 12.364 12.4159 11.9733 12.8066C11.5826 13.1973 11.0527 13.4168 10.5002 13.4168C9.94763 13.4168 9.41772 13.1973 9.02702 12.8066C8.63632 12.4159 8.41683 11.886 8.41683 11.3334H6.75016Z" fill="#FF7043"/>
</g>
<defs>
<clipPath id="clip0_231_77">
<rect width="20" height="20" fill="white" transform="translate(0.5 0.5)"/>
</clipPath>
</defs>
</svg>
